<svg xmlns="http://www.w3.org/2000/svg" version="1.1" xmlns:xlink="http://www.w3.org/1999/xlink" xmlns:svgjs="http://svgjs.dev/svgjs" width="1440" height="200" preserveAspectRatio="none" viewBox="0 0 1440 200"><g mask="url(&quot;#SvgjsMask1386&quot;)" fill="none"><path d="M247.23 54.28L258.21 54.28L258.21 64.27L247.23 64.27z" stroke="#e73635"></path><path d="M699.67 145.84L714.4 145.84L714.4 160.57L699.67 160.57z" stroke="rgba(76, 61, 154, 1)"></path><path d="M1406.79 17.91a16.39 16.39 0 1 0 9.23-31.45z" fill="#e73635"></path><path d="M939.98 31.11L955.48 31.11L955.48 37.97L939.98 37.97z" stroke="#d3b714"></path><path d="M1219.45 171.03L1234.33 171.03L1234.33 185.91L1219.45 185.91z" stroke="#037b0b"></path><path d="M987.31 75a11.9 11.9 0 1 0-7.76-22.5z" stroke="#037b0b"></path><path d="M1067.26 125.08L1085.33 125.08L1085.33 131.46L1067.26 131.46z" fill="rgba(156, 219, 44, 1)"></path><path d="M651.12 159.33a5.39 5.39 0 1 0-9.3-5.45z" stroke="rgba(89, 108, 55, 1)"></path><path d="M486.1 169.81L501.87 169.81L501.87 173L486.1 173z" fill="#037b0b"></path><path d="M1242.38 25.21L1253.3 25.21L1253.3 36.13L1242.38 36.13z" stroke="rgba(156, 219, 44, 1)"></path><path d="M969.49 200.43a5.76 5.76 0 1 0 3.8-10.88z" stroke="rgba(76, 61, 154, 1)"></path><path d="M1261.32 171.88 a18.9 18.9 0 1 0 37.8 0 a18.9 18.9 0 1 0 -37.8 0z" fill="rgba(156, 219, 44, 1)"></path><path d="M603.64 118.43L622.06 118.43L622.06 136.85L603.64 136.85z" stroke="rgba(76, 61, 154, 1)"></path><path d="M750.97 184.72L770.53 184.72L770.53 204.28L750.97 204.28z" stroke="rgba(89, 108, 55, 1)"></path><path d="M565.92 172.33L582.45 172.33L582.45 188.86L565.92 188.86z" stroke="rgba(156, 219, 44, 1)"></path><path d="M1171.93 110.2a10.83 10.83 0 1 0-13.78-16.72z" stroke="#037b0b"></path><path d="M255.89 19.93L260.61 19.93L260.61 24.65L255.89 24.65z" fill="rgba(89, 108, 55, 1)"></path><path d="M691.78 105.94L698.69 105.94L698.69 112.85L691.78 112.85z" fill="rgba(156, 219, 44, 1)"></path><path d="M516.18 5.56L533.04 5.56L533.04 7.51L516.18 7.51z" stroke="rgba(89, 108, 55, 1)"></path><path d="M1025.08 180.26L1029.29 180.26L1029.29 184.47L1025.08 184.47z" stroke="#e73635"></path><path d="M613.84 77.03 a5.26 5.26 0 1 0 10.52 0 a5.26 5.26 0 1 0 -10.52 0z" fill="#e73635"></path><path d="M73.47 180.78a3.33 3.33 0 1 0 0.85-6.61z" fill="rgba(76, 61, 154, 1)"></path><path d="M864.09 144.11L876.48 144.11L876.48 156.5L864.09 156.5z" stroke="rgba(156, 219, 44, 1)"></path><path d="M907.9 42.49a19.42 19.42 0 1 0 5.61-38.43z" stroke="rgba(156, 219, 44, 1)"></path><path d="M1101.81 34.52L1107.28 34.52L1107.28 35.27L1101.81 35.27z" stroke="#e73635"></path><path d="M817.41 173.8 a17.46 17.46 0 1 0 34.92 0 a17.46 17.46 0 1 0 -34.92 0z" stroke="rgba(156, 219, 44, 1)"></path><path d="M728.36 195.73L744.94 195.73L744.94 212.31L728.36 212.31z" fill="rgba(89, 108, 55, 1)"></path><path d="M657.81 2.34a2.76 2.76 0 1 0 0.83 5.46z" fill="#037b0b"></path><path d="M1169.39 148.35a11.31 11.31 0 1 0 13.77 17.95z" stroke="#037b0b"></path><path d="M597.93 41.25L609.25 41.25L609.25 52.57L597.93 52.57z" stroke="rgba(156, 219, 44, 1)"></path><path d="M1166.41 30.8a6.24 6.24 0 1 0-10.45-6.81z" stroke="#e73635"></path><path d="M18.45 93.5 a0.83 0.83 0 1 0 1.66 0 a0.83 0.83 0 1 0 -1.66 0z" fill="rgba(89, 108, 55, 1)"></path><path d="M206.03 163.81L214.69 163.81L214.69 166.55L206.03 166.55z" fill="#d3b714"></path><path d="M1347.2 161.36a5.6 5.6 0 1 0 10.72-3.26z" fill="rgba(76, 61, 154, 1)"></path><path d="M66.63 99.35L86.37 99.35L86.37 119.09L66.63 119.09z" stroke="rgba(89, 108, 55, 1)"></path><path d="M244.98 40.97L263.28 40.97L263.28 48.42L244.98 48.42z" fill="rgba(76, 61, 154, 1)"></path><path d="M794.13 17.8 a1.44 1.44 0 1 0 2.88 0 a1.44 1.44 0 1 0 -2.88 0z" stroke="rgba(156, 219, 44, 1)"></path><path d="M616.36 196.71L622.14 196.71L622.14 202.49L616.36 202.49z" fill="rgba(76, 61, 154, 1)"></path><path d="M97.62 141.75a15.46 15.46 0 1 0-21.62 22.11z" fill="#d3b714"></path><path d="M112.5 36.7 a16.09 16.09 0 1 0 32.18 0 a16.09 16.09 0 1 0 -32.18 0z" fill="#d3b714"></path><path d="M84.74 42.57L104.65 42.57L104.65 62.48L84.74 62.48z" fill="#d3b714"></path><path d="M1288.35 98.96a3.3 3.3 0 1 0 1 6.52z" fill="#e73635"></path><path d="M568.26 199.83L578.46 199.83L578.46 217.4L568.26 217.4z" stroke="#d3b714"></path><path d="M93.57 0.78L107.84 0.78L107.84 15.62L93.57 15.62z" stroke="rgba(76, 61, 154, 1)"></path><path d="M112.28 96.12L116.93 96.12L116.93 104.02L112.28 104.02z" fill="rgba(89, 108, 55, 1)"></path><path d="M1390.55 62.18L1397.01 62.18L1397.01 75.74L1390.55 75.74z" stroke="#037b0b"></path><path d="M1302.1 85.06a0.39 0.39 0 1 0-0.28-0.73z" stroke="#d3b714"></path><path d="M320.76 51.19 a6.6 6.6 0 1 0 13.2 0 a6.6 6.6 0 1 0 -13.2 0z" fill="rgba(76, 61, 154, 1)"></path><path d="M1382.28 82.41a7.2 7.2 0 1 0 13.99-3.4z" stroke="#d3b714"></path><path d="M626.42 137.34L638.75 137.34L638.75 142.08L626.42 142.08z" fill="#d3b714"></path><path d="M1371.41 146.61a10.28 10.28 0 1 0 18.74-8.46z" fill="rgba(76, 61, 154, 1)"></path><path d="M68.49 20.71a8.86 8.86 0 1 0-10.17-14.51z" stroke="rgba(89, 108, 55, 1)"></path><path d="M369.15 151.77L373.19 151.77L373.19 164.16L369.15 164.16z" fill="rgba(156, 219, 44, 1)"></path><path d="M563.01 127.15a7.06 7.06 0 1 0 13.56-3.92z" fill="#037b0b"></path><path d="M1277.31 44.87a6.78 6.78 0 1 0-13.44-1.79z" fill="rgba(156, 219, 44, 1)"></path><path d="M363.63 17.01L370.19 17.01L370.19 32.92L363.63 32.92z" stroke="#e73635"></path><path d="M306.8 92.91L321.97 92.91L321.97 108.08L306.8 108.08z" stroke="rgba(89, 108, 55, 1)"></path><path d="M637.34 153.01L643.54 153.01L643.54 169.65L637.34 169.65z" stroke="#d3b714"></path><path d="M843.1 99.38a5.75 5.75 0 1 0-11.5-0.19z" stroke="#d3b714"></path><path d="M171.61 103.82L183.58 103.82L183.58 115.79L171.61 115.79z" stroke="rgba(156, 219, 44, 1)"></path><path d="M483.26 77.22L486.6 77.22L486.6 80.56L483.26 80.56z" fill="#037b0b"></path><path d="M673.37 138.4L674.26 138.4L674.26 145.84L673.37 145.84z" fill="#d3b714"></path><path d="M230.12 94.42L234.94 94.42L234.94 102.35L230.12 102.35z" fill="rgba(156, 219, 44, 1)"></path><path d="M361.8 187.31 a2.9 2.9 0 1 0 5.8 0 a2.9 2.9 0 1 0 -5.8 0z" fill="rgba(156, 219, 44, 1)"></path><path d="M1075 105.46 a16.78 16.78 0 1 0 33.56 0 a16.78 16.78 0 1 0 -33.56 0z" fill="#037b0b"></path><path d="M992.78 177.55L1006.9 177.55L1006.9 181.55L992.78 181.55z" stroke="rgba(156, 219, 44, 1)"></path><path d="M941.99 95.81L950.12 95.81L950.12 103.94L941.99 103.94z" stroke="rgba(76, 61, 154, 1)"></path><path d="M254.09 8.52a1.32 1.32 0 1 0-1.62 2.09z" fill="rgba(156, 219, 44, 1)"></path><path d="M1352.87 55.91L1358.77 55.91L1358.77 61.81L1352.87 61.81z" stroke="rgba(89, 108, 55, 1)"></path><path d="M810.95 170.98L829.64 170.98L829.64 190.51L810.95 190.51z" fill="#e73635"></path><path d="M4.15 144.14 a19.81 19.81 0 1 0 39.62 0 a19.81 19.81 0 1 0 -39.62 0z" stroke="rgba(89, 108, 55, 1)"></path><path d="M475.8 61.4a19.22 19.22 0 1 0-16.76 34.59z" stroke="#e73635"></path><path d="M540.4 107.7L545.34 107.7L545.34 120.49L540.4 120.49z" stroke="rgba(76, 61, 154, 1)"></path><path d="M965.06 64.98L973.13 64.98L973.13 72.18L965.06 72.18z" stroke="rgba(156, 219, 44, 1)"></path><path d="M875.11 77.97L894.17 77.97L894.17 97.03L875.11 97.03z" fill="rgba(89, 108, 55, 1)"></path><path d="M1086.37 134.89L1094.37 134.89L1094.37 142.89L1086.37 142.89z" fill="rgba(156, 219, 44, 1)"></path><path d="M1317.16 12.89a10.81 10.81 0 1 0-21.43 2.86z" stroke="rgba(156, 219, 44, 1)"></path><path d="M1020.54 14.45L1035.47 14.45L1035.47 21.44L1020.54 21.44z" stroke="rgba(76, 61, 154, 1)"></path><path d="M1265.15 194.51L1271.54 194.51L1271.54 200.9L1265.15 200.9z" fill="#d3b714"></path><path d="M1.39 45.58 a11.85 11.85 0 1 0 23.7 0 a11.85 11.85 0 1 0 -23.7 0z" fill="#d3b714"></path><path d="M284.84 132.68 a17.93 17.93 0 1 0 35.86 0 a17.93 17.93 0 1 0 -35.86 0z" stroke="rgba(89, 108, 55, 1)"></path><path d="M1052.23 195.35 a8.77 8.77 0 1 0 17.54 0 a8.77 8.77 0 1 0 -17.54 0z" fill="#d3b714"></path><path d="M1120.57 108.67L1121.31 108.67L1121.31 123.76L1120.57 123.76z" stroke="#e73635"></path><path d="M-7.36 115.1 a16.04 16.04 0 1 0 32.08 0 a16.04 16.04 0 1 0 -32.08 0z" fill="#037b0b"></path><path d="M176.79 66.33L191.79 66.33L191.79 81.33L176.79 81.33z" stroke="rgba(89, 108, 55, 1)"></path><path d="M308.45 108.87L320.44 108.87L320.44 120.86L308.45 120.86z" fill="#e73635"></path><path d="M984.29 109.79a7.37 7.37 0 1 0-3.56-14.31z" stroke="#037b0b"></path><path d="M1118.96 46.78L1137.83 46.78L1137.83 65.65L1118.96 65.65z" stroke="rgba(89, 108, 55, 1)"></path><path d="M169.56 136.28a8.5 8.5 0 1 0-8.86 14.51z" stroke="#e73635"></path><path d="M848.23 112.34L860.68 112.34L860.68 118.25L848.23 118.25z" stroke="#037b0b"></path></g><defs><mask id="SvgjsMask1386"><rect width="1440" height="200" fill="#ffffff"></rect></mask></defs></svg>