<svg xmlns="http://www.w3.org/2000/svg" version="1.1" xmlns:xlink="http://www.w3.org/1999/xlink" xmlns:svgjs="http://svgjs.dev/svgjs" width="1440" height="500" preserveAspectRatio="none" viewBox="0 0 1440 500"><g mask="url(&quot;#SvgjsMask5901&quot;)" fill="none"><rect width="180" height="180" clip-path="url(&quot;#SvgjsClipPath5902&quot;)" x="788.05" y="-8.91" fill="url(&quot;#SvgjsPattern5903&quot;)" transform="rotate(40.38, 878.05, 81.09)"></rect><path d="M288.55 283.27a5.6 5.6 0 1 0-2.52-10.91 5.6 5.6 0 1 0 2.52 10.91zM284.96 267.68a5.6 5.6 0 1 0-2.52-10.92 5.6 5.6 0 1 0 2.52 10.92zM281.36 252.09a5.6 5.6 0 1 0-2.51-10.92 5.6 5.6 0 1 0 2.51 10.92zM277.77 236.5a5.6 5.6 0 1 0-2.52-10.92 5.6 5.6 0 1 0 2.52 10.92z" fill="rgba(199, 115, 133, 1)"></path><rect width="84" height="84" clip-path="url(&quot;#SvgjsClipPath5904&quot;)" x="333.75" y="124.77" fill="url(&quot;#SvgjsPattern5905&quot;)" transform="rotate(117.66, 375.75, 166.77)"></rect><rect width="128.64" height="128.64" clip-path="url(&quot;#SvgjsClipPath5906&quot;)" x="283.61" y="65.88" fill="url(&quot;#SvgjsPattern5907&quot;)" transform="rotate(128.19, 347.93, 130.2)"></rect><path d="M1142.11 283.86L1153.69 289.34 1150.88 301.84 1162.46 307.32 1159.65 319.81 1171.23 325.29 1168.42 337.79M1134.92 287.37L1146.5 292.85 1143.69 305.35 1155.27 310.83 1152.46 323.32 1164.04 328.8 1161.23 341.3M1127.73 290.88L1139.31 296.36 1136.5 308.86 1148.08 314.33 1145.27 326.83 1156.85 332.31 1154.04 344.8" stroke="rgba(150, 140, 236, 1)" stroke-width="1.86" stroke-dasharray="3, 3"></path><rect width="168" height="168" clip-path="url(&quot;#SvgjsClipPath5908&quot;)" x="683.02" y="50.96" fill="url(&quot;#SvgjsPattern5909&quot;)" transform="rotate(207.97, 767.02, 134.96)"></rect><rect width="101.52000000000001" height="101.52000000000001" clip-path="url(&quot;#SvgjsClipPath5910&quot;)" x="1167.35" y="180.34" fill="url(&quot;#SvgjsPattern5911&quot;)" transform="rotate(3.24, 1218.11, 231.1)"></rect><circle r="68.07456753616387" cx="696.98" cy="158.98" stroke="rgba(49, 202, 134, 1)" stroke-width="2.76" stroke-dasharray="3, 2"></circle><path d="M1146.08 173.32 L1056.83 109.04L1023.8346630399387 218.80033696006114z" stroke="rgba(73, 80, 143, 1)" stroke-width="1" stroke-dasharray="2, 2"></path><circle r="41.666666666666664" cx="859.77" cy="341.04" stroke="rgba(73, 80, 143, 1)" stroke-width="1.46" stroke-dasharray="3, 2"></circle><path d="M176.55 118.4 L208.69 124.81L173.42855931812207 140.79644068187795z" stroke="rgba(151, 49, 202, 1)" stroke-width="1" stroke-dasharray="3, 2"></path><circle r="41.666666666666664" cx="604.48" cy="316.98" fill="rgba(198, 218, 149, 1)"></circle><path d="M274.64 37.4L275.23 24.61 287.84 22.38 288.44 9.59 301.05 7.36 301.64-5.43 314.25-7.66M280.65 42.69L281.24 29.89 293.85 27.67 294.45 14.87 307.06 12.64 307.65-0.15 320.26-2.38M286.66 47.97L287.25 35.18 299.86 32.95 300.45 20.16 313.07 17.93 313.66 5.13 326.27 2.91" stroke="rgba(151, 49, 202, 1)" stroke-width="1" stroke-dasharray="3, 2"></path></g><defs><mask id="SvgjsMask5901"><rect width="1440" height="500" fill="#ffffff"></rect></mask><pattern x="0" y="0" width="180" height="6" patternUnits="userSpaceOnUse" id="SvgjsPattern5903"><rect width="180" height="3" x="0" y="0" fill="rgba(199, 115, 133, 1)"></rect><rect width="180" height="3" x="0" y="3" fill="rgba(0, 0, 0, 0)"></rect></pattern><clipPath id="SvgjsClipPath5902"><circle r="45" cx="878.05" cy="81.09"></circle></clipPath><pattern x="0" y="0" width="6" height="6" patternUnits="userSpaceOnUse" id="SvgjsPattern5905"><path d="M0 6L3 0L6 6" stroke="rgba(151, 49, 202, 1)" fill="none"></path></pattern><clipPath id="SvgjsClipPath5904"><circle r="21" cx="375.75" cy="166.77"></circle></clipPath><pattern x="0" y="0" width="128.64" height="10.72" patternUnits="userSpaceOnUse" id="SvgjsPattern5907"><rect width="128.64" height="5.36" x="0" y="0" fill="rgba(73, 135, 77, 1)"></rect><rect width="128.64" height="5.36" x="0" y="5.36" fill="rgba(0, 0, 0, 0)"></rect></pattern><clipPath id="SvgjsClipPath5906"><circle r="32.16" cx="347.93" cy="130.2"></circle></clipPath><pattern x="0" y="0" width="6" height="6" patternUnits="userSpaceOnUse" id="SvgjsPattern5909"><path d="M0 6L3 0L6 6" stroke="rgba(150, 140, 236, 1)" fill="none"></path></pattern><clipPath id="SvgjsClipPath5908"><circle r="42" cx="767.02" cy="134.96"></circle></clipPath><pattern x="0" y="0" width="8.46" height="8.46" patternUnits="userSpaceOnUse" id="SvgjsPattern5911"><path d="M0 8.46L4.23 0L8.46 8.46" stroke="rgba(73, 80, 143, 1)" fill="none"></path></pattern><clipPath id="SvgjsClipPath5910"><circle r="25.380000000000003" cx="1218.11" cy="231.1"></circle></clipPath></defs></svg>