<svg xmlns="http://www.w3.org/2000/svg" width="1440" height="200" preserveAspectRatio="none"><g fill="none" mask="url(&quot;#a&quot;)"><path stroke="#e73635" d="M247.23 54.28h10.98v9.99h-10.98z"/><path stroke="rgba(76, 61, 154, 1)" d="M699.67 145.84h14.73v14.73h-14.73z"/><path fill="#e73635" d="M1406.79 17.91a16.39 16.39 0 1 0 9.23-31.45z"/><path stroke="#d3b714" d="M939.98 31.11h15.5v6.86h-15.5z"/><path stroke="#037b0b" d="M1219.45 171.03h14.88v14.88h-14.88zM987.31 75a11.9 11.9 0 1 0-7.76-22.5z"/><path fill="rgba(156, 219, 44, 1)" d="M1067.26 125.08h18.07v6.38h-18.07z"/><path stroke="rgba(89, 108, 55, 1)" d="M651.12 159.33a5.39 5.39 0 1 0-9.3-5.45z"/><path fill="#037b0b" d="M486.1 169.81h15.77V173H486.1z"/><path stroke="rgba(156, 219, 44, 1)" d="M1242.38 25.21h10.92v10.92h-10.92z"/><path stroke="rgba(76, 61, 154, 1)" d="M969.49 200.43a5.76 5.76 0 1 0 3.8-10.88z"/><path fill="rgba(156, 219, 44, 1)" d="M1261.32 171.88a18.9 18.9 0 1 0 37.8 0 18.9 18.9 0 1 0-37.8 0z"/><path stroke="rgba(76, 61, 154, 1)" d="M603.64 118.43h18.42v18.42h-18.42z"/><path stroke="rgba(89, 108, 55, 1)" d="M750.97 184.72h19.56v19.56h-19.56z"/><path stroke="rgba(156, 219, 44, 1)" d="M565.92 172.33h16.53v16.53h-16.53z"/><path stroke="#037b0b" d="M1171.93 110.2a10.83 10.83 0 1 0-13.78-16.72z"/><path fill="rgba(89, 108, 55, 1)" d="M255.89 19.93h4.72v4.72h-4.72z"/><path fill="rgba(156, 219, 44, 1)" d="M691.78 105.94h6.91v6.91h-6.91z"/><path stroke="rgba(89, 108, 55, 1)" d="M516.18 5.56h16.86v1.95h-16.86z"/><path stroke="#e73635" d="M1025.08 180.26h4.21v4.21h-4.21z"/><path fill="#e73635" d="M613.84 77.03a5.26 5.26 0 1 0 10.52 0 5.26 5.26 0 1 0-10.52 0z"/><path fill="rgba(76, 61, 154, 1)" d="M73.47 180.78a3.33 3.33 0 1 0 .85-6.61z"/><path stroke="rgba(156, 219, 44, 1)" d="M864.09 144.11h12.39v12.39h-12.39zM907.9 42.49a19.42 19.42 0 1 0 5.61-38.43z"/><path stroke="#e73635" d="M1101.81 34.52h5.47v.75h-5.47z"/><path stroke="rgba(156, 219, 44, 1)" d="M817.41 173.8a17.46 17.46 0 1 0 34.92 0 17.46 17.46 0 1 0-34.92 0z"/><path fill="rgba(89, 108, 55, 1)" d="M728.36 195.73h16.58v16.58h-16.58z"/><path fill="#037b0b" d="M657.81 2.34a2.76 2.76 0 1 0 .83 5.46z"/><path stroke="#037b0b" d="M1169.39 148.35a11.31 11.31 0 1 0 13.77 17.95z"/><path stroke="rgba(156, 219, 44, 1)" d="M597.93 41.25h11.32v11.32h-11.32z"/><path stroke="#e73635" d="M1166.41 30.8a6.24 6.24 0 1 0-10.45-6.81z"/><path fill="rgba(89, 108, 55, 1)" d="M18.45 93.5a.83.83 0 1 0 1.66 0 .83.83 0 1 0-1.66 0z"/><path fill="#d3b714" d="M206.03 163.81h8.66v2.74h-8.66z"/><path fill="rgba(76, 61, 154, 1)" d="M1347.2 161.36a5.6 5.6 0 1 0 10.72-3.26z"/><path stroke="rgba(89, 108, 55, 1)" d="M66.63 99.35h19.74v19.74H66.63z"/><path fill="rgba(76, 61, 154, 1)" d="M244.98 40.97h18.3v7.45h-18.3z"/><path stroke="rgba(156, 219, 44, 1)" d="M794.13 17.8a1.44 1.44 0 1 0 2.88 0 1.44 1.44 0 1 0-2.88 0z"/><path fill="rgba(76, 61, 154, 1)" d="M616.36 196.71h5.78v5.78h-5.78z"/><path fill="#d3b714" d="M97.62 141.75A15.46 15.46 0 1 0 76 163.86zM112.5 36.7a16.09 16.09 0 1 0 32.18 0 16.09 16.09 0 1 0-32.18 0zM84.74 42.57h19.91v19.91H84.74z"/><path fill="#e73635" d="M1288.35 98.96a3.3 3.3 0 1 0 1 6.52z"/><path stroke="#d3b714" d="M568.26 199.83h10.2v17.57h-10.2z"/><path stroke="rgba(76, 61, 154, 1)" d="M93.57.78h14.27v14.84H93.57z"/><path fill="rgba(89, 108, 55, 1)" d="M112.28 96.12h4.65v7.9h-4.65z"/><path stroke="#037b0b" d="M1390.55 62.18h6.46v13.56h-6.46z"/><path stroke="#d3b714" d="M1302.1 85.06a.39.39 0 1 0-.28-.73z"/><path fill="rgba(76, 61, 154, 1)" d="M320.76 51.19a6.6 6.6 0 1 0 13.2 0 6.6 6.6 0 1 0-13.2 0z"/><path stroke="#d3b714" d="M1382.28 82.41a7.2 7.2 0 1 0 13.99-3.4z"/><path fill="#d3b714" d="M626.42 137.34h12.33v4.74h-12.33z"/><path fill="rgba(76, 61, 154, 1)" d="M1371.41 146.61a10.28 10.28 0 1 0 18.74-8.46z"/><path stroke="rgba(89, 108, 55, 1)" d="M68.49 20.71A8.86 8.86 0 1 0 58.32 6.2z"/><path fill="rgba(156, 219, 44, 1)" d="M369.15 151.77h4.04v12.39h-4.04z"/><path fill="#037b0b" d="M563.01 127.15a7.06 7.06 0 1 0 13.56-3.92z"/><path fill="rgba(156, 219, 44, 1)" d="M1277.31 44.87a6.78 6.78 0 1 0-13.44-1.79z"/><path stroke="#e73635" d="M363.63 17.01h6.56v15.91h-6.56z"/><path stroke="rgba(89, 108, 55, 1)" d="M306.8 92.91h15.17v15.17H306.8z"/><path stroke="#d3b714" d="M637.34 153.01h6.2v16.64h-6.2zM843.1 99.38a5.75 5.75 0 1 0-11.5-.19z"/><path stroke="rgba(156, 219, 44, 1)" d="M171.61 103.82h11.97v11.97h-11.97z"/><path fill="#037b0b" d="M483.26 77.22h3.34v3.34h-3.34z"/><path fill="#d3b714" d="M673.37 138.4h.89v7.44h-.89z"/><path fill="rgba(156, 219, 44, 1)" d="M230.12 94.42h4.82v7.93h-4.82zM361.8 187.31a2.9 2.9 0 1 0 5.8 0 2.9 2.9 0 1 0-5.8 0z"/><path fill="#037b0b" d="M1075 105.46a16.78 16.78 0 1 0 33.56 0 16.78 16.78 0 1 0-33.56 0z"/><path stroke="rgba(156, 219, 44, 1)" d="M992.78 177.55h14.12v4h-14.12z"/><path stroke="rgba(76, 61, 154, 1)" d="M941.99 95.81h8.13v8.13h-8.13z"/><path fill="rgba(156, 219, 44, 1)" d="M254.09 8.52a1.32 1.32 0 1 0-1.62 2.09z"/><path stroke="rgba(89, 108, 55, 1)" d="M1352.87 55.91h5.9v5.9h-5.9z"/><path fill="#e73635" d="M810.95 170.98h18.69v19.53h-18.69z"/><path stroke="rgba(89, 108, 55, 1)" d="M4.15 144.14a19.81 19.81 0 1 0 39.62 0 19.81 19.81 0 1 0-39.62 0z"/><path stroke="#e73635" d="M475.8 61.4a19.22 19.22 0 1 0-16.76 34.59z"/><path stroke="rgba(76, 61, 154, 1)" d="M540.4 107.7h4.94v12.79h-4.94z"/><path stroke="rgba(156, 219, 44, 1)" d="M965.06 64.98h8.07v7.2h-8.07z"/><path fill="rgba(89, 108, 55, 1)" d="M875.11 77.97h19.06v19.06h-19.06z"/><path fill="rgba(156, 219, 44, 1)" d="M1086.37 134.89h8v8h-8z"/><path stroke="rgba(156, 219, 44, 1)" d="M1317.16 12.89a10.81 10.81 0 1 0-21.43 2.86z"/><path stroke="rgba(76, 61, 154, 1)" d="M1020.54 14.45h14.93v6.99h-14.93z"/><path fill="#d3b714" d="M1265.15 194.51h6.39v6.39h-6.39zM1.39 45.58a11.85 11.85 0 1 0 23.7 0 11.85 11.85 0 1 0-23.7 0z"/><path stroke="rgba(89, 108, 55, 1)" d="M284.84 132.68a17.93 17.93 0 1 0 35.86 0 17.93 17.93 0 1 0-35.86 0z"/><path fill="#d3b714" d="M1052.23 195.35a8.77 8.77 0 1 0 17.54 0 8.77 8.77 0 1 0-17.54 0z"/><path stroke="#e73635" d="M1120.57 108.67h.74v15.09h-.74z"/><path fill="#037b0b" d="M-7.36 115.1a16.04 16.04 0 1 0 32.08 0 16.04 16.04 0 1 0-32.08 0z"/><path stroke="rgba(89, 108, 55, 1)" d="M176.79 66.33h15v15h-15z"/><path fill="#e73635" d="M308.45 108.87h11.99v11.99h-11.99z"/><path stroke="#037b0b" d="M984.29 109.79a7.37 7.37 0 1 0-3.56-14.31z"/><path stroke="rgba(89, 108, 55, 1)" d="M1118.96 46.78h18.87v18.87h-18.87z"/><path stroke="#e73635" d="M169.56 136.28a8.5 8.5 0 1 0-8.86 14.51z"/><path stroke="#037b0b" d="M848.23 112.34h12.45v5.91h-12.45z"/></g><defs><mask id="a"><path fill="#fff" d="M0 0h1440v200H0z"/></mask></defs></svg>